<?xml version="1.0" encoding="UTF-8" standalone="no"?>
<!-- Created with Inkscape (http://www.inkscape.org/) -->

<svg
   width="96.31707mm"
   height="25.818726mm"
   viewBox="0 0 96.31707 25.818726"
   version="1.1"
   id="svg1"
   xml:space="preserve"
   xmlns="http://www.w3.org/2000/svg"
   xmlns:svg="http://www.w3.org/2000/svg"><defs
     id="defs1"><style
       id="style1">.cls-1{fill:#5a5a5a;}.cls-2{fill:#aaa;}</style></defs><g
     id="layer1"
     transform="translate(-53.241947,-112.2294)"><g
       id="g1"
       transform="matrix(0.26458333,0,0,0.26458333,52.295549,112.26441)"
       style="display:none"><path
         d="M 20.84,6.26 A 2.84,2.84 0 0 1 23.89,4 h 3 a 1.94,1.94 0 0 1 1.78,0.94 2.93,2.93 0 0 1 0.22,2.32 L 11.4,76 a 2.84,2.84 0 0 1 -3.07,2.3 h -3 A 2,2 0 0 1 3.55,77.37 2.86,2.86 0 0 1 3.27,75.14 Z"
         id="path1" /><path
         d="M 38.41,55.13 49.08,37.42 a 31.33,31.33 0 0 1 7,-8.4 q 3.58,-2.82 6.14,-2.82 h 2.16 a 5.07,5.07 0 0 1 2.58,0.55 4.19,4.19 0 0 1 1.5,2.51 q 0.57,2 -0.58,5.76 L 56.4,76.85 a 1.58,1.58 0 0 1 -1.65,1.45 h -5.37 q -1.5,0 -0.8,-2.45 L 59.35,40.62 a 17.06,17.06 0 0 0 0.8,-3.63 q 0,-0.88 -0.7,-0.88 a 2.71,2.71 0 0 0 -1.68,0.93 21.92,21.92 0 0 0 -2.63,3.39 q -2,2.81 -4.71,7.28 -2.71,4.47 -7,11 -8,12.1 -11.41,18.17 a 2.8,2.8 0 0 1 -2.57,1.37 h -3 q -0.63,0 -1.07,-0.83 A 2.33,2.33 0 0 1 25.24,75.59 L 37.72,28.85 q 0.52,-2.65 2.14,-2.66 h 4.38 q 2.52,0 1.72,3 z"
         id="path2" /><path
         d="m 102,31.91 q 1.65,1.75 0.4,3.21 l -1.7,2 q -1.76,2 -3.11,0.5 l -1.1,-1.25 Q 92.78,32.61 90.63,33.11 86.92,33.81 82.81,41 A 55,55 0 0 0 76.92,55.83 Q 75.13,63.42 76,68.53 a 3.5,3.5 0 0 0 1.9,2.28 4,4 0 0 0 2.61,0.83 25,25 0 0 0 6.86,-6.16 q 1.15,-1.55 3.31,-0.2 l 1.55,1 q 3.26,2 -5.56,9.07 Q 83,78.5 81,79.07 79,79.64 74.77,77.54 70.59,75.43 69.63,73.38 66.77,67.12 69.55,55.57 72.33,44.02 76.36,37.91 a 42.1,42.1 0 0 1 7.9,-9.29 11.07,11.07 0 0 1 8.32,-2.76 q 4.46,0.43 9.47,6"
         id="path3" /><path
         d="m 116.46,39.93 a 90.57,90.57 0 0 1 6,-8.82 24.52,24.52 0 0 1 4.06,-4.38 8.33,8.33 0 0 1 4.48,-0.88 h 1 q 3,0 2.05,2.3 a 9.71,9.71 0 0 1 -2.51,3 52.86,52.86 0 0 0 -5.44,6.16 q -3.43,4.36 -3.43,5.66 a 6.86,6.86 0 0 0 2.61,5.03 0.87,0.87 0 0 1 0.35,1.08 1.44,1.44 0 0 1 -1.05,0.78 l -3.91,0.7 a 3.2,3.2 0 0 1 -2.53,-0.35 q -0.88,-0.65 -3,-4.65 l -7.87,30.46 a 2.93,2.93 0 0 1 -3.12,2.24 h -3 q -2.92,0 -2.27,-2.35 L 111.4,28.22 a 2.6,2.6 0 0 1 2.87,-2.05 h 3.17 a 2.62,2.62 0 0 1 1.81,0.45 q 0.45,0.45 0.15,1.71 z"
         id="path4" /><path
         d="m 135.26,64 q -1.4,7.61 2.79,8.42 3.74,-1.42 9.27,-7.75 a 1.57,1.57 0 0 1 2,-0.2 l 1.94,1.21 a 1.93,1.93 0 0 1 0.9,2.28 q -2,3.74 -7.21,7.94 -5.21,4.2 -8.47,3.59 -7.26,-1.87 -8.52,-7.69 -1.45,-7.79 2.56,-21.27 4.01,-13.48 11.22,-20.33 a 15.82,15.82 0 0 1 6.26,-3.43 11.42,11.42 0 0 1 7.9,0.63 q 4.16,1.75 4.11,10 -0.05,8.25 -7.23,15.6 a 45.11,45.11 0 0 1 -17.52,11 m 1.25,-6.56 a 34.86,34.86 0 0 0 8.19,-4.81 22.93,22.93 0 0 0 5.63,-6.71 16.41,16.41 0 0 0 2.22,-8.12 q 0,-4.16 -2.39,-4.16 -4.68,0 -8.19,7.69 a 84.19,84.19 0 0 0 -5.45,16.11"
         id="path5" /><path
         d="M 205.32,3 185.81,70.64 A 35.3,35.3 0 0 0 192,63.72 q 1.1,-1.65 2.55,-0.7 l 2.45,1.65 q 1.66,1.1 0.5,2.55 a 54.54,54.54 0 0 1 -7.74,7.64 21.19,21.19 0 0 1 -8.45,3.83 1.45,1.45 0 0 1 -1.9,-1.1 l -2,-5.66 a 25.46,25.46 0 0 1 -4.46,4.76 q -2.36,1.9 -3.85,1.9 h -0.21 q -2,0 -5.31,-3.38 a 10.72,10.72 0 0 1 -3.41,-7.29 q -0.1,-8 4.53,-20.84 4.63,-12.84 8.66,-16.81 a 13.32,13.32 0 0 1 10,-3.88 12.27,12.27 0 0 1 6.46,1.85 L 196.68,2.7 A 3.12,3.12 0 0 1 200,0.45 h 2.86 q 3.14,0 2.46,2.55 m -17.06,31 q -5.11,-2.86 -8.54,-0.4 -3.43,2.46 -6.56,10.92 A 117.34,117.34 0 0 0 168.6,59.4 q -1.43,6.41 -0.4,8.87 1.03,2.46 3.38,0.4 4.81,-3 8.64,-11.24 3.83,-8.24 8,-23.43"
         id="path6" /><path
         d="m 218.81,28.36 -12.42,47.69 a 2.85,2.85 0 0 1 -3.07,2.24 h -3 q -2.87,0 -2.27,-2.36 l 12.52,-47.69 a 2.59,2.59 0 0 1 2.86,-2.05 h 3.41 a 2.6,2.6 0 0 1 1.8,0.45 q 0.45,0.45 0.19,1.71 m -1.89,-17.79 h 1 a 4.29,4.29 0 0 1 3.06,1.56 5.06,5.06 0 0 1 1.45,3.56 4.57,4.57 0 0 1 -1.5,3.43 5.24,5.24 0 0 1 -3.76,1.43 h -0.8 a 4.18,4.18 0 0 1 -3.13,-1.48 5.05,5.05 0 0 1 0.05,-7 4.73,4.73 0 0 1 3.58,-1.5"
         id="path7" /><path
         d="m 232.65,78.7 a 12.19,12.19 0 0 1 -6.56,-2 2.86,2.86 0 0 1 -2.72,1.58 h -1.73 q -3.57,0 -3,-3.31 L 237.46,2.7 a 2.84,2.84 0 0 1 3.07,-2.25 h 2.33 q 2.83,0 2.23,2.34 l -8.94,35 1.5,-2.55 A 27.21,27.21 0 0 1 242.6,29 q 2.78,-2.55 4.53,-2.55 h 0.2 a 5.66,5.66 0 0 1 2.55,1.18 15.65,15.65 0 0 1 3.44,3.37 12.2,12.2 0 0 1 2.31,4.41 q 0.63,2.31 -0.3,8.42 A 93.11,93.11 0 0 1 250.5,60.61 Q 246.58,71.23 242.6,75 a 14,14 0 0 1 -9.95,3.73 m -5.16,-7.57 q 5,3 8.63,0.4 3.63,-2.6 7.08,-11.8 a 96.48,96.48 0 0 0 4.43,-14.48 32.41,32.41 0 0 0 0.84,-7.09 3.14,3.14 0 0 0 -1.86,-2.71 q -1.71,-0.85 -5.68,3.54 a 38.35,38.35 0 0 0 -6.85,11.64 202.62,202.62 0 0 0 -6.29,19.44 z"
         id="path8" /><path
         d="m 257.3,63.42 a 59.65,59.65 0 0 1 6.89,-26 q 6.43,-12.27 16.38,-12.07 a 9.6,9.6 0 0 1 8,5.16 q 2.16,3.36 1.76,11.37 A 55.62,55.62 0 0 1 282,70 q -5.48,9.47 -14.72,9.12 a 9,9 0 0 1 -6.08,-2.86 q -4.22,-4 -3.92,-12.82 m 17.57,4.08 a 48.5,48.5 0 0 0 7.28,-24.7 q 0.1,-6 -0.62,-8.12 a 3,3 0 0 0 -3,-2.12 5.26,5.26 0 0 0 -4.16,2.17 26.43,26.43 0 0 0 -3.66,6.15 52.08,52.08 0 0 0 -4.9,21.48 q -0.2,9.28 3.17,9.58 2.92,0.1 5.89,-4.44"
         id="path9" /><path
         d="m 285.75,75.74 q 12.42,-15.08 18.58,-23.59 -2.55,-10.77 -6,-22.2 -1.3,-3.76 1.59,-3.76 h 2.75 a 2.9,2.9 0 0 1 2.9,2.42 q 2.76,9.52 4.61,17.23 4.52,-6.59 11.39,-18.35 a 2.84,2.84 0 0 1 2.76,-1.3 h 3.51 q 2.76,0 0.5,3.67 a 279.24,279.24 0 0 1 -16.18,24.2 q 2.35,10.44 4.21,22.09 0.3,2.05 -1.65,2.15 l -3.06,0.3 a 1.79,1.79 0 0 1 -1.76,-0.4 7.69,7.69 0 0 1 -0.94,-2.77 q -1,-7 -2.69,-14.61 l -9.42,11.73 -2.63,3.27 -0.52,0.64 -0.46,0.57 a 1.74,1.74 0 0 1 -0.62,0.54 l -0.67,0.31 a 2.91,2.91 0 0 1 -1.64,0.4 h -2.91 a 1.93,1.93 0 0 1 -1.9,-0.88 1.39,1.39 0 0 1 0.25,-1.68"
         id="path10" /></g><path
       class="cls-1"
       d="m 351.27,5.51 -12.61,1.71 a 0.24,0.24 0 0 0 -0.21,0.24 l -0.06,8.83 a 3,3 0 0 0 -0.68,-0.08 3,3 0 0 0 -2.94,2.92 2.94,2.94 0 0 0 2.92,3 v 0 a 3,3 0 0 0 2.94,-2.92 l 0.06,-8.19 8.53,-1.08 v 4.66 a 3.09,3.09 0 0 0 -0.68,-0.08 2.94,2.94 0 1 0 2.94,3 l 0.08,-11.7 a 0.24,0.24 0 0 0 -0.27,-0.24"
       id="path11"
       transform="matrix(0.26458333,0,0,0.26458333,52.295549,112.26441)" /><path
       class="cls-2"
       d="m 367.52,0.48 a 0.24,0.24 0 0 0 -0.19,-0.06 l -8.52,1.16 a 0.24,0.24 0 0 0 -0.21,0.23 v 5.87 a 2.17,2.17 0 0 0 -0.38,0 2.065,2.065 0 0 0 0,4.13 v 0 a 2.07,2.07 0 0 0 2.06,-2.05 V 4.3 l 5.6,-0.71 v 3 a 2.16,2.16 0 0 0 -0.38,0 2.06,2.06 0 1 0 2.06,2.08 l 0.05,-7.9 a 0.24,0.24 0 0 0 -0.08,-0.18 m -9.34,11.06 z"
       id="path12"
       transform="matrix(0.26458333,0,0,0.26458333,52.295549,112.26441)" /><text
       xml:space="preserve"
       style="font-style:normal;font-variant:normal;font-weight:normal;font-stretch:normal;font-size:27.1785px;line-height:0;font-family:Allan;-inkscape-font-specification:Allan;text-align:start;writing-mode:lr-tb;direction:ltr;text-anchor:start;fill:#000000;fill-rule:evenodd;stroke:#000000;stroke-width:0"
       x="53.640404"
       y="132.71175"
       id="text1"
       transform="scale(0.99874906,1.0012525)"><tspan
         id="tspan1"
         style="fill:#000000;stroke-width:0"
         x="53.640404"
         y="132.71175">IncrediLog</tspan></text></g></svg>
