<?xml version="1.0" encoding="UTF-8" standalone="no"?>
<!-- Created with Inkscape (http://www.inkscape.org/) -->

<svg
   width="96.485321mm"
   height="25.818726mm"
   viewBox="0 0 96.485321 25.818726"
   version="1.1"
   id="svg1"
   xml:space="preserve"
   xmlns="http://www.w3.org/2000/svg"
   xmlns:svg="http://www.w3.org/2000/svg"><defs
     id="defs1"><style
       id="style1">.cls-1{fill:#5a5a5a;}.cls-2{fill:#aaa;}</style></defs><g
     id="layer1"
     transform="translate(-53.241949,-112.2294)"><g
       id="g3"><path
         class="st1"
         d="m 351.3,5.5 -12.6,1.7 c -0.1,0 -0.2,0.1 -0.2,0.2 l -0.1,8.8 c -0.2,-0.1 -0.5,-0.1 -0.7,-0.1 -1.6,0 -2.9,1.3 -2.9,2.9 0,1.6 1.3,3 2.9,3 0,0 0,0 0,0 v 0 c 1.6,0 2.9,-1.3 2.9,-2.9 l 0.1,-8.2 8.5,-1.1 v 4.7 c -0.2,-0.1 -0.5,-0.1 -0.7,-0.1 -1.6,0 -2.9,1.3 -2.9,2.9 0,1.6 1.3,2.9 2.9,2.9 1.6,0 2.9,-1.3 2.9,-2.9 l 0.1,-11.7 c 0.1,0.1 0,0 -0.2,-0.1 0,0.1 0,0.1 0,0"
         id="path11-1"
         transform="matrix(0.26458333,0,0,0.26458333,52.466428,112.12765)" /><path
         class="st2"
         d="m 367.5,0.5 c -0.1,0 -0.1,-0.1 -0.2,-0.1 l -8.5,1.2 c -0.1,0 -0.2,0.1 -0.2,0.2 v 5.9 c -0.1,0 -0.3,0 -0.4,0 -1.1,0 -2.1,0.9 -2.1,2.1 0,1.2 0.9,2.1 2.1,2.1 v 0 c 1.1,0 2,-0.9 2.1,-2.1 V 4.3 l 5.6,-0.7 v 3 c -0.1,0 -0.3,0 -0.4,0 -1.1,0 -2.1,0.9 -2.1,2.1 0,1.2 0.9,2.1 2.1,2.1 1.1,0 2,-0.9 2.1,-2 V 0.9 c 0,-0.1 0,-0.1 -0.1,-0.2 z"
         id="path12-5"
         transform="matrix(0.26458333,0,0,0.26458333,52.466428,112.12765)" /><text
         xml:space="preserve"
         style="font-style:normal;font-variant:normal;font-weight:normal;font-stretch:normal;font-size:27.1785px;line-height:0;font-family:Allan;-inkscape-font-specification:Allan;text-align:start;writing-mode:lr-tb;direction:ltr;text-anchor:start;fill:#eeeeee;fill-opacity:1;fill-rule:evenodd;stroke:#000000;stroke-width:0"
         x="53.640404"
         y="132.71175"
         id="text1"
         transform="scale(0.99874906,1.0012525)"><tspan
           id="tspan1"
           style="fill:#eeeeee;fill-opacity:1;stroke-width:0"
           x="53.640404"
           y="132.71175">IncrediLog</tspan></text></g></g><style
     type="text/css"
     id="style1-9">
	.st0{fill:#EEEEEE;}
	.st1{fill:#999999;}
	.st2{fill:#555555;}
</style></svg>
